<?xml version="1.0" encoding="UTF-8" standalone="no"?>
<!DOCTYPE svg PUBLIC "-//W3C//DTD SVG 1.1//EN" "http://www.w3.org/Graphics/SVG/1.1/DTD/svg11.dtd">
<svg width="100%" height="100%" viewBox="0 0 512 512" version="1.1" xmlns="http://www.w3.org/2000/svg" xmlns:xlink="http://www.w3.org/1999/xlink" xml:space="preserve" xmlns:serif="http://www.serif.com/" style="fill-rule:evenodd;clip-rule:evenodd;stroke-linejoin:round;stroke-miterlimit:2;">
    <path d="M256,8C119,8 8,119 8,256C8,393 119,504 256,504C393,504 504,393 504,256C504,119 393,8 256,8ZM472,256C472,374.7 375.9,472 256,472C137.3,472 40,375.9 40,256C40,137.3 136.1,40 256,40C374.7,40 472,136.1 472,256ZM379.5,251.5L372.6,244.6C367.9,239.9 360.1,239.9 355.5,244.8L273,330.3L273,140C273,133.4 267.6,128 261,128L251,128C244.4,128 239,133.4 239,140L239,330.3L156.5,244.7C151.8,239.9 144.1,239.8 139.4,244.5L132.5,251.4C127.8,256.1 127.8,263.7 132.5,268.4L247.5,383.5C252.2,388.2 259.8,388.2 264.5,383.5L379.5,268.4C384.2,263.8 384.2,256.2 379.5,251.5Z" style="fill:white;fill-rule:nonzero;stroke:black;stroke-width:7.99px;"/>
</svg>
