<?xml version="1.0" encoding="UTF-8" standalone="no"?>
<!DOCTYPE svg PUBLIC "-//W3C//DTD SVG 1.1//EN" "http://www.w3.org/Graphics/SVG/1.1/DTD/svg11.dtd">
<svg width="100%" height="100%" viewBox="0 0 1600 506" version="1.1" xmlns="http://www.w3.org/2000/svg" xmlns:xlink="http://www.w3.org/1999/xlink" xml:space="preserve" xmlns:serif="http://www.serif.com/" style="fill-rule:evenodd;clip-rule:evenodd;stroke-linejoin:round;stroke-miterlimit:2;">
    <g transform="matrix(1,0,0,1,2.27374e-13,-197.149)">
        <g transform="matrix(2.2993,0,0,2.30091,-575.119,-168.522)">
            <g transform="matrix(1.00122,0,0,1.00122,-0.304945,80.1466)">
                <path d="M314.956,236.323L314.956,86.838L333.66,86.838L333.66,248.416C333.66,264.729 329.956,277.104 322.55,285.541C315.144,293.979 304.269,298.198 289.925,298.198C281.206,298.198 273.496,296.393 266.792,292.784C260.089,289.174 254.535,283.854 250.128,276.823L263.347,264.729C267.285,270.073 271.386,274.01 275.652,276.541C279.917,279.073 284.488,280.338 289.363,280.338C298.55,280.338 305.113,277.034 309.05,270.424C312.988,263.815 314.956,252.448 314.956,236.323Z" style="fill:white;fill-rule:nonzero;"/>
            </g>
        </g>
        <g transform="matrix(2.2993,0,0,2.30091,-575.119,-168.522)">
            <g transform="matrix(1.00122,0,0,1.00122,-0.304945,80.1466)">
                <path d="M421.473,206.932L493.191,206.932L458.035,117.354L421.473,206.932ZM368.879,292.713L459.301,78.682L545.926,292.713L525.535,292.713L499.238,222.963L415.144,222.963L387.863,292.713L368.879,292.713Z" style="fill:white;fill-rule:nonzero;"/>
            </g>
        </g>
        <g transform="matrix(2.2993,0,0,2.30091,-575.119,-168.522)">
            <g transform="matrix(1.00122,0,0,1.00122,-0.304945,80.1466)">
                <path d="M749.051,124.526C738.832,115.713 728.379,109.198 717.692,104.979C707.004,100.76 695.754,98.651 683.942,98.651C657.317,98.651 635.684,107.088 619.043,123.963C602.403,140.838 594.082,162.823 594.082,189.916C594.082,203.51 596.122,215.745 600.2,226.62C604.278,237.495 610.489,247.151 618.832,255.588C627.082,263.838 636.528,270.12 647.168,274.432C657.809,278.745 669.223,280.901 681.411,280.901C693.223,280.901 704.754,278.885 716.004,274.854C727.254,270.823 737.895,264.87 747.926,256.995L747.926,278.932C737.801,285.12 727.09,289.877 715.793,293.205C704.497,296.534 693.317,298.198 682.254,298.198C667.348,298.198 653.098,295.526 639.504,290.182C625.911,284.838 614.239,277.338 604.489,267.682C594.457,257.745 586.864,246.213 581.707,233.088C576.551,219.963 573.973,205.573 573.973,189.916C573.973,174.541 576.622,160.198 581.918,146.885C587.215,133.573 594.832,122.088 604.77,112.432C614.426,102.963 626.075,95.557 639.715,90.213C653.356,84.87 667.536,82.198 682.254,82.198C695.379,82.198 707.543,84.002 718.747,87.612C729.95,91.221 740.145,96.635 749.332,103.854L749.051,124.526Z" style="fill:white;fill-rule:nonzero;"/>
            </g>
        </g>
        <g transform="matrix(2.2993,0,0,2.30091,-575.119,-168.522)">
            <g transform="matrix(1.00122,0,0,1.00122,-0.304945,80.1466)">
                <path d="M804.239,292.713L804.239,86.838L822.942,86.838L822.942,183.307L916.036,86.838L940.505,86.838L842.911,185.276L945.145,292.713L918.005,292.713L822.942,188.229L822.942,292.713L804.239,292.713Z" style="fill:white;fill-rule:nonzero;"/>
            </g>
        </g>
    </g>
</svg>
