<?xml version="1.0" encoding="UTF-8" standalone="no"?>
<!DOCTYPE svg PUBLIC "-//W3C//DTD SVG 1.1//EN" "http://www.w3.org/Graphics/SVG/1.1/DTD/svg11.dtd">
<svg width="100%" height="100%" viewBox="0 0 1600 409" version="1.1" xmlns="http://www.w3.org/2000/svg" xmlns:xlink="http://www.w3.org/1999/xlink" xml:space="preserve" xmlns:serif="http://www.serif.com/" style="fill-rule:evenodd;clip-rule:evenodd;stroke-linejoin:round;stroke-miterlimit:2;">
    <g transform="matrix(1,0,0,1,-2.27374e-13,-245.806)">
        <g transform="matrix(1.98367,0,0,1.98367,-148.849,-913.617)">
            <path d="M75.037,790.359L75.037,584.484L112.584,584.484C127.397,584.484 138.295,585.28 145.28,586.874C152.264,588.468 158.334,591.093 163.49,594.749C169.959,599.437 174.975,605.859 178.537,614.015C182.1,622.171 183.881,631.218 183.881,641.155C183.881,660.749 178.397,675.116 167.428,684.257C156.459,693.398 139.115,697.968 115.397,697.968L93.74,697.968L93.74,790.359L75.037,790.359ZM93.74,681.515L106.537,681.515C129.225,681.515 144.483,678.632 152.311,672.866C160.139,667.101 164.053,656.999 164.053,642.562C164.053,636.468 163.162,630.866 161.381,625.757C159.6,620.648 156.928,616.077 153.365,612.046C149.709,607.921 144.74,605.015 138.459,603.327C132.178,601.64 121.537,600.796 106.537,600.796L93.74,600.796L93.74,681.515Z" style="fill:white;fill-rule:nonzero;"/>
        </g>
        <g transform="matrix(1.98367,0,0,1.98367,-148.849,-913.617)">
            <rect x="234.301" y="584.484" width="18.703" height="205.875" style="fill:white;"/>
        </g>
        <g transform="matrix(1.98367,0,0,1.98367,-148.849,-913.617)">
            <path d="M319.597,790.359L319.597,584.484L338.3,584.484L338.3,772.78L408.893,772.78L408.893,790.359L319.597,790.359Z" style="fill:white;fill-rule:nonzero;"/>
        </g>
        <g transform="matrix(1.98367,0,0,1.98367,-148.849,-913.617)">
            <path d="M453.829,790.359L453.829,584.484L472.532,584.484L472.532,772.78L543.126,772.78L543.126,790.359L453.829,790.359Z" style="fill:white;fill-rule:nonzero;"/>
        </g>
        <g transform="matrix(1.98367,0,0,1.98367,-148.849,-913.617)">
            <path d="M588.062,790.359L588.062,584.484L690.015,584.484L690.015,602.062L606.765,602.062L606.765,666.468L690.015,666.468L690.015,684.046L606.765,684.046L606.765,772.78L690.015,772.78L690.015,790.359L588.062,790.359Z" style="fill:white;fill-rule:nonzero;"/>
        </g>
        <g transform="matrix(1.98367,0,0,1.98367,-148.849,-913.617)">
            <path d="M795.279,790.359L795.279,695.577L726.935,584.484L749.435,584.484L804.701,678.843L860.248,584.484L881.623,584.484L813.982,695.577L813.982,790.359L795.279,790.359Z" style="fill:white;fill-rule:nonzero;"/>
        </g>
    </g>
</svg>
