<?xml version="1.0" encoding="UTF-8" standalone="no"?>
<!DOCTYPE svg PUBLIC "-//W3C//DTD SVG 1.1//EN" "http://www.w3.org/Graphics/SVG/1.1/DTD/svg11.dtd">
<svg width="100%" height="100%" viewBox="0 0 325 367" version="1.1" xmlns="http://www.w3.org/2000/svg" xmlns:xlink="http://www.w3.org/1999/xlink" xml:space="preserve" xmlns:serif="http://www.serif.com/" style="fill-rule:evenodd;clip-rule:evenodd;stroke-linecap:round;stroke-linejoin:round;stroke-miterlimit:1.5;">
    <g transform="matrix(1,0,0,1,-93.9959,-72.9783)">
        <g transform="matrix(1.33061,0,0,1.33061,-245.641,-84.6584)">
            <path d="M256,256L498,256" style="fill:none;stroke:black;stroke-width:1.5px;"/>
        </g>
        <g transform="matrix(1.33061,0,0,1.33061,-104.596,88.3212)">
            <path d="M311.947,32.5L311.947,219.19" style="fill:none;stroke:black;stroke-width:1.5px;"/>
        </g>
        <g transform="matrix(0.666667,0,0,0.666667,85.6626,-78.0217)">
            <path d="M487,228L14,501" style="fill:none;stroke:black;stroke-width:3px;stroke-dasharray:3,6,0,0,0,0;"/>
        </g>
        <g transform="matrix(0.333413,0.577304,-0.577304,0.333413,379.583,80.8563)">
            <path d="M487,228L14,501" style="fill:none;stroke:black;stroke-width:3px;stroke-dasharray:3,6,0,0,0,0;"/>
        </g>
        <g transform="matrix(1,0,0,1,-21,37.3784)">
            <g transform="matrix(100,0,0,100,367.636,207.58)">
                <path d="M0.055,-0.253L0.235,-0.253L0.235,-0.072L0.279,-0.072L0.279,-0.253L0.459,-0.253L0.459,-0.297L0.279,-0.297L0.279,-0.477L0.235,-0.477L0.235,-0.297L0.055,-0.297L0.055,-0.253Z" style="fill-rule:nonzero;"/>
            </g>
        </g>
        <g transform="matrix(1,0,0,1,-7.1366,35)">
            <g transform="matrix(100,0,0,100,246.137,213.408)">
                <rect x="0.045" y="-0.309" width="0.25" height="0.042" style="fill-rule:nonzero;"/>
            </g>
        </g>
    </g>
</svg>
