# Blender 3.3.2
# www.blender.org
o Icosphere.001
v 0.138303 0.152787 0.901503
v 0.524607 -0.110704 0.407751
v -0.909731 0.402037 0.114125
v 0.503139 0.512014 0.463343
v 0.602946 0.555296 -0.398526
v 0.618554 0.425778 0.296021
v 0.641811 0.531352 -0.216519
v -0.557855 0.520121 -0.045741
v -0.186738 0.592269 -0.758824
v -0.326899 0.490285 -0.815930
v -0.739439 0.390422 -0.381464
v -0.577928 0.488775 0.639921
v 0.446113 0.574659 -0.626646
v -0.875806 0.339498 0.393737
v -0.158444 0.566337 0.718647
v 0.538196 0.362799 0.582640
v 0.605259 0.228738 -0.574254
v -0.053669 0.577925 -0.044190
v 0.227041 0.544131 0.684837
v 0.696364 0.166981 -0.275435
v 0.094012 0.406268 0.902632
v -0.502319 0.297897 -0.786531
v -0.519029 0.137620 0.833732
v -0.932212 0.112121 0.193937
v -0.950913 0.131279 -0.173648
v 0.186209 0.484560 -0.869074
v -0.470003 0.557929 0.535338
v -0.276477 0.119799 -0.846416
v -0.191207 -0.010679 0.920343
v 0.323216 0.237320 0.821874
v -0.708639 -0.096867 0.579652
v -0.200964 0.357376 0.940813
v 0.623835 0.192112 0.158084
v 0.440581 0.050830 0.663870
v -0.021025 0.299162 -0.876785
v 0.567536 0.448506 -0.625848
v -0.527960 0.186312 -0.764581
v -0.694578 -0.011351 -0.535124
v 0.410653 0.165174 -0.828484
v -0.694987 0.248773 0.684647
v 0.130012 0.154673 0.872733
v 0.496385 -0.106317 0.398573
v -0.886046 0.383625 0.113997
v 0.486997 0.488298 0.454568
v 0.582423 0.533730 -0.394829
v 0.590599 0.416980 0.289608
v 0.620082 0.510669 -0.216736
v -0.550515 0.491053 -0.044633
v -0.182211 0.565532 -0.745992
v -0.315200 0.474726 -0.793103
v -0.718434 0.372183 -0.370232
v -0.563343 0.467424 0.624708
v 0.435490 0.549105 -0.615065
v -0.849962 0.329646 0.382119
v -0.156474 0.538679 0.707196
v 0.513466 0.356037 0.567061
v 0.578092 0.227244 -0.561617
v -0.053151 0.547935 -0.044780
v 0.218208 0.518259 0.672484
v 0.666625 0.163750 -0.273170
v 0.086861 0.392619 0.876892
v -0.485104 0.291863 -0.762714
v -0.503458 0.134932 0.808230
v -0.903071 0.112121 0.186811
v -0.923564 0.123217 -0.164319
v 0.180602 0.470289 -0.843289
v -0.463099 0.529003 0.531385
v -0.270315 0.118238 -0.817097
v -0.188188 -0.008718 0.890560
v 0.305697 0.236415 0.797538
v -0.683669 -0.092818 0.563524
v -0.196119 0.346794 0.913162
v 0.594628 0.195286 0.152010
v 0.416340 0.056115 0.647006
v -0.018747 0.297442 -0.846921
v 0.544023 0.438978 -0.609838
v -0.507675 0.186212 -0.742478
v -0.670237 -0.012046 -0.517602
v 0.395164 0.161632 -0.803036
v -0.673185 0.244616 0.664463
v -0.180815 -0.865922 0.121244
v -0.265817 -0.931322 -0.187151
v 0.015929 -0.265372 0.529442
v 0.296355 -0.162995 0.325922
v -0.578784 -0.174987 0.158584
v -0.479741 -0.147678 0.554158
v -0.100880 -0.774092 -0.252499
v -0.298560 -0.502643 -0.002594
v 0.173956 -0.677368 0.169341
v 0.062461 -0.691337 -0.200140
v 0.077655 0.136864 0.854881
v 0.282281 -0.600593 0.035390
v 0.308659 0.015884 0.200159
v 0.037172 -1.054001 -0.094032
v -0.886046 0.383625 0.113997
v 0.486997 0.488298 0.454568
v 0.582423 0.533730 -0.394829
v 0.590599 0.416980 0.289608
v 0.620082 0.510669 -0.216736
v -0.550515 0.491053 -0.044633
v 0.446527 0.063226 0.014745
v -0.182211 0.565532 -0.745992
v -0.315200 0.474726 -0.793103
v -0.718434 0.372183 -0.370232
v -0.563343 0.467424 0.624708
v 0.435490 0.549105 -0.615065
v -0.849962 0.329646 0.382119
v -0.156474 0.538679 0.707196
v 0.513466 0.356037 0.567061
v 0.557267 0.231388 -0.558189
v 0.163364 -0.190129 0.337423
v -0.053151 0.547935 -0.044780
v 0.218208 0.518259 0.672484
v 0.666625 0.163750 -0.273170
v -0.249815 -0.173415 0.439298
v 0.086862 0.392622 0.876822
v 0.140276 -0.043193 0.645635
v -0.283399 -0.476516 0.223779
v -0.141694 -0.062547 0.641699
v -0.480274 0.271486 -0.764557
v -0.489278 0.134932 0.798078
v -0.883810 -0.054315 0.117723
v -0.568369 -0.210509 -0.214346
v -0.878488 0.093454 -0.132335
v 0.180570 0.470374 -0.843282
v -0.463099 0.529003 0.531385
v -0.237873 -0.259182 -0.677338
v 0.391062 -0.008968 -0.448103
v 0.179150 -0.349723 -0.462763
v 0.400811 -0.116494 -0.095707
v -0.233018 0.088962 -0.708319
v -0.242041 0.057302 0.840934
v 0.305699 0.236420 0.797432
v -0.697946 -0.057466 0.428641
v -0.196119 0.346794 0.913162
v -0.171008 -0.394050 0.264074
v 0.011197 -0.496127 0.334489
v 0.519893 0.208003 0.105049
v -0.032042 -1.163739 -0.059479
v -0.067723 -0.471102 -0.574429
v 0.396004 0.056115 0.592326
v -0.448519 -0.543322 -0.316803
v -0.005015 0.177253 -0.847229
v 0.542157 0.439349 -0.609531
v -0.796341 -0.187898 -0.088419
v -0.328275 -0.617442 -0.119738
v -0.754223 -0.273337 0.070958
v -0.505108 -0.450437 -0.082290
v -0.455972 -0.215587 -0.516347
v 0.354761 -0.225003 0.126983
v -0.471628 -0.001222 -0.694128
v -0.704649 -0.018785 -0.366378
v 0.185436 -0.689450 -0.074869
v 0.356237 0.279875 -0.821019
v 0.554759 -0.003551 -0.355113
v -0.269993 -0.338000 -0.507001
v -0.673113 0.244616 0.664412
v -0.361637 -0.480724 0.132914
v 0.010299 -0.981945 0.047993
vn 0.5331 0.7936 0.2933
vn 0.7212 0.6927 0.0071
vn 0.2931 0.8640 0.4093
vn 0.9407 -0.1410 0.3086
vn 0.9743 -0.0968 0.2033
vn 0.8236 0.2270 0.5197
vn -0.9718 0.0110 0.2356
vn -0.8324 -0.1307 0.5385
vn -0.7260 0.1404 0.6732
vn 0.7827 0.3209 -0.5334
vn 0.5154 0.1247 -0.8478
vn 0.1888 0.4725 -0.8608
vn -0.1625 0.3541 0.9210
vn -0.1009 -0.0579 0.9932
vn 0.2742 -0.0543 0.9601
vn -0.8127 0.0322 -0.5818
vn -0.9110 0.2729 -0.3093
vn -0.5740 0.2014 -0.7937
vn -0.0759 0.0717 -0.9945
vn 0.8097 -0.1716 0.5612
vn 0.5833 0.0289 0.8118
vn -0.6984 0.6108 -0.3730
vn -0.1530 0.8945 -0.4201
vn -0.3891 0.5174 -0.7622
vn 0.9325 0.2898 0.2154
vn 0.9899 0.1202 -0.0748
vn -0.4872 0.7098 0.5088
vn -0.7881 0.6155 0.0028
vn -0.8627 0.3257 0.3868
vn -0.0116 0.9997 0.0199
vn -0.2537 0.9664 -0.0416
vn 0.3523 0.8555 -0.3795
vn 0.2394 0.4566 0.8568
vn 0.9055 0.0567 -0.4206
vn 0.6759 0.7270 -0.1207
vn -0.0633 0.9210 0.3844
vn -0.6831 0.0133 -0.7302
vn -0.2115 0.0599 -0.9756
vn -0.2344 0.9628 0.1342
vn -0.5176 0.0960 0.8502
vn -0.5380 -0.7905 -0.2925
vn -0.2944 -0.8624 -0.4118
vn -0.7243 -0.6894 -0.0072
vn -0.6121 -0.7216 -0.3235
vn -0.8243 -0.2254 -0.5193
vn -0.8072 -0.4407 -0.3927
vn 0.6420 -0.6890 -0.3365
vn 0.7267 -0.1386 -0.6728
vn 0.8323 0.1350 -0.5376
vn -0.7838 -0.3176 0.5337
vn -0.1869 -0.4757 0.8595
vn -0.5163 -0.1181 0.8482
vn 0.1615 -0.3527 -0.9217
vn -0.2763 0.0628 -0.9590
vn 0.1007 0.0654 -0.9928
vn 0.5618 -0.7879 0.2523
vn 0.5738 -0.2011 0.7939
vn 0.3465 -0.9079 0.2360
vn 0.1362 -0.6435 0.7532
vn -0.8081 0.1762 -0.5621
vn -0.5840 -0.0302 -0.8112
vn 0.7002 -0.6080 0.3744
vn 0.3900 -0.5186 0.7609
vn 0.1509 -0.8912 0.4277
vn -0.9318 -0.2933 -0.2137
vn -0.5343 -0.8452 -0.0121
vn 0.4862 -0.7117 -0.5071
vn 0.8615 -0.3284 -0.3873
vn 0.7895 -0.6137 -0.0043
vn 0.0173 -0.9997 -0.0197
vn 0.2447 -0.9689 0.0369
vn -0.3541 -0.8518 0.3860
vn -0.2384 -0.4550 -0.8580
vn -0.6115 -0.7362 0.2898
vn -0.6841 -0.7189 0.1232
vn 0.0657 -0.9219 -0.3817
vn 0.5735 -0.6610 0.4839
vn 0.2465 -0.8143 0.5254
vn 0.2301 -0.9642 -0.1318
vn 0.5190 -0.0896 -0.8501
vn -0.0108 -0.9194 -0.3931
vn 0.0529 -0.9982 -0.0291
vn -0.3648 -0.8998 0.2393
vn 0.0501 -0.9960 -0.0740
vn -0.3496 -0.9092 0.2263
vn 0.0752 -0.9869 -0.1426
vn -0.2990 -0.9528 0.0530
vn 0.0018 -0.9920 -0.1262
vn 0.0134 -0.9914 -0.1299
vn -0.0982 -0.9770 -0.1892
vn -0.0637 -0.9714 -0.2289
vn 0.1657 -0.9833 -0.0754
vn 0.0357 -0.9970 -0.0685
vn 0.0961 -0.9911 -0.0926
vn 0.1690 -0.9825 -0.0781
vn 0.1592 -0.9757 -0.1506
vn 0.0635 -0.9872 0.1463
vn 0.0364 -0.9974 -0.0620
vn 0.1665 -0.9860 0.0045
vn 0.0460 -0.9901 0.1325
vn 0.1706 -0.9852 0.0169
vn 0.1017 -0.9917 -0.0786
vn 0.5821 -0.4860 0.6519
vn 0.9422 -0.1851 0.2793
vn 0.7612 -0.4384 0.4779
vn 0.0755 -0.4957 0.8652
vn -0.0124 -0.7604 0.6493
vn -0.0742 -0.7367 0.6722
vn -0.0621 -0.5652 0.8226
vn -0.4892 -0.2485 0.8360
vn -0.2959 -0.7408 0.6031
vn 0.0749 -0.6154 0.7847
vn 0.9113 -0.4023 0.0879
vn 0.4246 -0.5388 0.7276
vn 0.3203 -0.6954 0.6433
vn 0.6444 -0.6056 -0.4668
vn 0.7894 -0.3127 -0.5283
vn 0.6261 -0.7249 -0.2873
vn 0.2208 -0.5064 -0.8335
vn -0.3614 -0.4838 -0.7970
vn 0.2865 -0.5879 -0.7565
vn -0.2702 -0.5255 0.8068
vn -0.5615 -0.7415 0.3672
vn -0.8091 -0.5346 0.2440
vn -0.8067 -0.5849 0.0842
vn 0.7617 -0.5519 0.3395
vn 0.2177 -0.4489 0.8666
vn -0.5455 -0.5605 -0.6231
vn -0.7924 -0.5268 -0.3075
vn -0.5305 -0.5143 -0.6739
vn -0.4750 -0.3255 -0.8176
vn 0.9136 -0.4023 0.0585
vn 0.9281 -0.2868 0.2373
vn 0.7464 -0.5889 0.3100
vn 0.8794 0.0810 0.4691
vn 0.5192 -0.5476 0.6562
vn 0.8052 -0.4529 0.3829
vn -0.8164 -0.3895 -0.4263
vn -0.8028 -0.5389 -0.2551
vn -0.5133 -0.4907 0.7041
vn -0.3222 -0.5365 0.7800
vn 0.0158 -0.7237 0.6899
vn 0.5380 0.7905 0.2925
vn 0.7246 0.6891 0.0059
vn 0.2945 0.8624 0.4118
vn -0.8921 -0.3962 0.2171
vn -0.6914 -0.5761 0.4361
vn -0.7259 0.0367 0.6869
vn 0.7962 0.2827 -0.5349
vn 0.4979 -0.1472 -0.8546
vn 0.1647 0.4924 -0.8547
vn -0.1558 0.2897 0.9444
vn 0.9633 -0.2676 -0.0205
vn -0.9336 -0.1063 -0.3421
vn -0.5593 0.0338 -0.8283
vn -0.0169 -0.2548 -0.9669
vn 0.5751 -0.1002 0.8119
vn -0.7536 0.5282 -0.3912
vn -0.1509 0.8912 -0.4277
vn -0.3935 0.5135 -0.7625
vn 0.9635 0.1518 0.2205
vn -0.4862 0.7116 0.5072
vn -0.8234 0.5672 -0.0172
vn -0.8745 0.3086 0.3742
vn -0.0173 0.9997 0.0197
vn -0.2447 0.9689 -0.0369
vn 0.3568 0.8500 -0.3877
vn 0.2391 0.4157 0.8775
vn 0.6893 0.7136 -0.1253
vn -0.0656 0.9219 0.3817
vn -0.2506 -0.2797 -0.9268
vn 0.5695 -0.4766 -0.6698
vn -0.6457 -0.6464 -0.4065
vn -0.7348 -0.4813 -0.4780
vn -0.5473 -0.7078 0.4466
vn -0.6203 -0.7843 -0.0086
vn 0.7162 -0.5550 -0.4230
vn 0.7675 -0.3907 -0.5083
vn 0.4130 -0.5939 -0.6905
vn -0.2301 0.9642 0.1318
vn -0.8482 -0.3541 0.3940
vn 0.1316 -0.3723 -0.9187
vt 0.329828 0.503660
vt 0.526926 0.788474
vt 0.523750 0.576435
vt 0.637835 0.931182
vt 0.093999 0.735869
vt 0.383197 0.654540
vt 0.404449 0.829722
vt 0.418591 0.682484
vt 0.419941 0.794599
vt 0.176659 0.763968
vt 0.259843 0.896258
vt 0.231352 0.916314
vt 0.134122 0.839941
vt 0.168920 0.628845
vt 0.375543 0.872861
vt 0.096068 0.674508
vt 0.253105 0.614730
vt 0.402815 0.618621
vt 0.468405 0.898219
vt 0.921560 0.884631
vt 0.278101 0.760502
vt 0.326572 0.617659
vt 0.523750 0.816667
vt 0.847951 0.933810
vt 0.302926 0.564622
vt 0.183039 0.934052
vt 0.143457 0.536640
vt 0.533570 0.597679
vt 0.018003 0.702171
vt 0.693919 0.460500
vt 0.032609 0.818367
vt 0.807549 0.453863
vt 0.331063 0.928017
vt 0.193640 0.652090
vt 0.209370 0.992233
vt 0.988842 0.630351
vt 0.224592 0.460425
vt 0.500439 0.693018
vt 0.365641 0.554184
vt 0.033331 0.557181
vt 0.574886 0.506442
vt 0.239940 0.550849
vt 0.487604 0.694523
vt 0.730350 0.918792
vt 0.438069 0.542903
vt 0.586074 0.885102
vt 0.286539 0.975027
vt 0.989423 0.707207
vt 0.411848 0.882289
vt 0.162050 0.947664
vt 0.952888 0.579364
vt 0.079790 0.932817
vt 0.919903 0.506764
vt 0.413663 0.980866
vt 0.989423 0.825879
vt 0.116487 0.594651
vt 0.534759 0.785969
vt 0.639680 0.924597
vt 0.732755 0.533730
vt 0.679775 0.819597
vt 0.851369 0.824226
vt 0.709163 0.847137
vt 0.819320 0.840550
vt 0.768674 0.610878
vt 0.907273 0.683349
vt 0.923401 0.655097
vt 0.840625 0.564989
vt 0.637679 0.617536
vt 0.890539 0.796181
vt 0.675411 0.543500
vt 0.629782 0.701314
vt 0.650806 0.837733
vt 0.916927 0.877971
vt 0.775414 0.711067
vt 0.639836 0.770515
vt 0.845829 0.925674
vt 0.588709 0.753212
vt 0.935882 0.608941
vt 0.540861 0.600254
vt 0.695253 0.468273
vt 0.805989 0.462076
vt 0.938460 0.751628
vt 0.660591 0.638494
vt 0.982945 0.632025
vt 0.507255 0.693201
vt 0.587759 0.812883
vt 0.579464 0.511604
vt 0.570260 0.696105
vt 0.730256 0.910398
vt 0.590846 0.880284
vt 0.981885 0.707785
vt 0.899359 0.826966
vt 0.947410 0.583799
vt 0.915332 0.511545
vt 0.982061 0.822262
vt 0.602396 0.570996
vt 0.123750 0.362414
vt 0.154330 0.437610
vt 0.429171 0.082473
vt 0.152621 0.198634
vt 0.077078 0.163673
vt 0.263887 0.278333
vt 0.240296 0.216868
vt 0.478178 0.104305
vt 0.206301 0.340308
vt 0.062714 0.291277
vt 0.501739 0.145659
vt 0.198488 0.114739
vt 0.513689 0.222402
vt 0.021896 0.276987
vt 0.629718 0.312129
vt 0.037423 0.124147
vt 0.040021 0.404443
vt 0.414302 0.154542
vt 0.362825 0.236909
vt 0.751312 0.357989
vt 0.758041 0.210348
vt 0.731950 0.323974
vt 0.751571 0.236457
vt 0.982771 0.255447
vt 0.422623 0.237889
vt 0.657942 0.269267
vt 0.871347 0.096322
vt 0.524867 0.348263
vt 0.488443 0.360902
vt 0.405112 0.302840
vt 0.326381 0.153299
vt 0.771429 0.173851
vt 0.331234 0.213652
vt 0.880929 0.433934
vt 0.297445 0.066421
vt 0.125786 0.017363
vt 0.722733 0.384037
vt 0.717219 0.180150
vt 0.100842 0.184384
vt 0.868351 0.261015
vt 0.211959 0.020785
vt 0.798876 0.415816
vt 0.701342 0.222478
vt 0.200170 0.220142
vt 0.224324 0.076182
vt 0.156307 0.143467
vt 0.184519 0.291885
vt 0.198192 0.176734
vt 0.439811 0.372215
vt 0.264556 0.169461
vt 0.308622 0.272765
vt 0.305093 0.347073
vt 0.345682 0.293342
vt 0.593006 0.424487
vt 0.783243 0.109017
vt 0.957149 0.396058
vt 0.350292 0.134502
vt 0.603191 0.027906
vt 0.366782 0.467907
vt 0.667271 0.173829
vt 0.600931 0.135684
vt 0.627626 0.234265
vt 0.436135 0.428487
vt 0.231412 0.153943
vt 0.173115 0.078659
vt 0.276824 0.232737
vt 0.256680 0.113502
vt 0.168997 0.264429
vt 0.120636 0.254318
vt 0.689668 0.290099
vt 0.061885 0.431134
vt 0.386511 0.146017
vt 0.570741 0.076353
vt 0.122773 0.098633
vt 0.259892 0.405617
vt 0.717832 0.056701
vt 0.497949 0.462258
vt 0.748062 0.178166
vt 0.306704 0.307671
vt 0.209774 0.377979
vt 0.286043 0.296781
vt 0.252510 0.342414
vt 0.342236 0.406520
vt 0.586981 0.272324
vt 0.027883 0.185928
vt 0.398221 0.397504
vt 0.353974 0.341552
vt 0.498237 0.187571
vt 0.734169 0.131460
vt 0.678211 0.202256
vt 0.321334 0.455917
vt 0.564881 0.026413
vt 0.297163 0.182615
vt 0.200975 0.310227
vt 0.069736 0.377657
s 1
f 4/6/1 7/9/2 19/22/3
f 2/3/4 33/43/5 16/18/6
f 24/29/7 31/40/8 40/56/9
f 36/49/10 39/54/11 26/33/12
f 32/42/13 29/37/14 1/1/15
f 38/52/16 25/31/17 22/26/18
f 26/33/12 39/54/11 35/47/19
f 34/45/20 16/18/6 30/39/21
f 2/3/4 16/18/6 34/45/20
f 19/22/3 16/18/6 4/6/1
f 11/13/22 9/11/23 10/12/24
f 6/8/25 33/43/5 20/23/26
f 12/14/27 3/5/28 14/16/29
f 18/21/30 9/11/23 8/10/31
f 35/47/19 10/12/24 26/33/12
f 26/33/12 13/15/32 36/49/10
f 16/18/6 21/25/33 30/39/21
f 17/19/34 39/54/11 36/49/10
f 36/49/10 5/7/35 7/9/2
f 32/42/13 1/1/15 21/25/33
f 21/25/33 16/18/6 19/22/3
f 19/22/3 15/17/36 21/25/33
f 4/6/1 6/8/25 7/9/2
f 37/50/37 22/26/18 28/35/38
f 34/45/20 30/39/21 1/1/15
f 10/12/24 9/11/23 26/33/12
f 3/5/28 8/10/31 9/11/23
f 37/50/37 38/52/16 22/26/18
f 33/43/5 6/8/25 16/18/6
f 16/18/6 6/8/25 4/6/1
f 27/34/39 12/14/27 15/17/36
f 25/31/17 11/13/22 22/26/18
f 14/16/29 3/5/28 24/29/7
f 30/39/21 21/25/33 1/1/15
f 8/10/31 27/34/39 18/21/30
f 23/27/40 29/37/14 32/42/13
f 28/35/38 22/26/18 35/47/19
f 11/13/22 25/31/17 3/5/28
f 32/42/13 12/14/27 40/56/9
f 10/12/24 22/26/18 11/13/22
f 31/40/8 23/27/40 40/56/9
f 18/21/30 5/7/35 13/15/32
f 18/21/30 13/15/32 9/11/23
f 12/14/27 27/34/39 3/5/28
f 19/22/3 7/9/2 15/17/36
f 9/11/23 13/15/32 26/33/12
f 20/23/26 7/9/2 6/8/25
f 5/7/35 36/49/10 13/15/32
f 7/9/2 18/21/30 15/17/36
f 36/49/10 7/9/2 20/23/26
f 36/49/10 20/23/26 17/19/34
f 15/17/36 18/21/30 27/34/39
f 24/29/7 3/5/28 25/31/17
f 22/26/18 10/12/24 35/47/19
f 5/7/35 18/21/30 7/9/2
f 11/13/22 3/5/28 9/11/23
f 14/16/29 24/29/7 40/56/9
f 23/27/40 32/42/13 40/56/9
f 14/16/29 40/56/9 12/14/27
f 27/34/39 8/10/31 3/5/28
f 15/17/36 32/42/13 21/25/33
f 15/17/36 12/14/27 32/42/13
f 44/60/41 59/75/42 47/63/43
f 42/58/44 56/72/45 73/89/46
f 64/80/47 80/96/48 71/87/49
f 76/92/50 66/82/51 79/95/52
f 72/88/53 41/57/54 69/85/55
f 78/94/56 62/78/57 65/81/58
f 66/82/51 75/91/59 79/95/52
f 74/90/60 70/86/61 56/72/45
f 42/58/44 74/90/60 56/72/45
f 59/75/42 44/60/41 56/72/45
f 51/67/62 50/66/63 49/65/64
f 46/62/65 60/76/66 73/89/46
f 52/68/67 54/70/68 43/59/69
f 58/74/70 48/64/71 49/65/64
f 75/91/59 66/82/51 50/66/63
f 66/82/51 76/92/50 53/69/72
f 56/72/45 70/86/61 61/77/73
f 57/73/74 76/92/50 79/95/52
f 76/92/50 47/63/43 45/61/75
f 72/88/53 61/77/73 41/57/54
f 61/77/73 59/75/42 56/72/45
f 59/75/42 61/77/73 55/71/76
f 44/60/41 47/63/43 46/62/65
f 77/93/77 68/84/78 62/78/57
f 74/90/60 41/57/54 70/86/61
f 50/66/63 66/82/51 49/65/64
f 43/59/69 49/65/64 48/64/71
f 77/93/77 62/78/57 78/94/56
f 73/89/46 56/72/45 46/62/65
f 56/72/45 44/60/41 46/62/65
f 67/83/79 55/71/76 52/68/67
f 65/81/58 62/78/57 51/67/62
f 54/70/68 64/80/47 43/59/69
f 70/86/61 41/57/54 61/77/73
f 48/64/71 58/74/70 67/83/79
f 63/79/80 72/88/53 69/85/55
f 68/84/78 75/91/59 62/78/57
f 51/67/62 43/59/69 65/81/58
f 72/88/53 80/96/48 52/68/67
f 50/66/63 51/67/62 62/78/57
f 71/87/49 80/96/48 63/79/80
f 58/74/70 53/69/72 45/61/75
f 58/74/70 49/65/64 53/69/72
f 52/68/67 43/59/69 67/83/79
f 59/75/42 55/71/76 47/63/43
f 49/65/64 66/82/51 53/69/72
f 60/76/66 46/62/65 47/63/43
f 45/61/75 53/69/72 76/92/50
f 47/63/43 55/71/76 58/74/70
f 76/92/50 60/76/66 47/63/43
f 76/92/50 57/73/74 60/76/66
f 55/71/76 67/83/79 58/74/70
f 64/80/47 65/81/58 43/59/69
f 62/78/57 75/91/59 50/66/63
f 45/61/75 47/63/43 58/74/70
f 51/67/62 49/65/64 43/59/69
f 54/70/68 80/96/48 64/80/47
f 63/79/80 80/96/48 72/88/53
f 54/70/68 52/68/67 80/96/48
f 67/83/79 43/59/69 48/64/71
f 55/71/76 61/77/73 72/88/53
f 55/71/76 72/88/53 52/68/67
f 33/44/81 42/58/44 73/89/46
f 17/20/82 60/76/66 57/73/74
f 34/46/83 41/57/84 74/90/85
f 38/53/86 65/81/58 25/32/87
f 17/20/82 79/95/88 39/55/89
f 2/4/90 74/90/85 42/58/44
f 24/30/91 65/81/58 64/80/47
f 35/48/92 79/95/88 75/91/59
f 29/38/93 41/57/84 1/2/94
f 38/53/86 77/93/77 78/94/56
f 28/36/95 77/93/77 37/51/96
f 29/38/93 63/79/97 69/85/98
f 31/41/99 63/79/97 23/28/100
f 31/41/99 64/80/47 71/87/101
f 33/44/81 60/76/66 20/24/102
f 28/36/95 75/91/59 68/84/78
f 89/106/103 150/181/104 84/101/105
f 137/165/106 119/144/107 115/140/108
f 132/160/109 121/146/110 86/103/111
f 137/165/106 83/100/112 119/144/107
f 92/110/113 89/106/103 159/191/114
f 117/142/115 83/100/112 137/165/106
f 128/156/116 110/134/117 155/186/118
f 87/104/119 127/154/120 140/169/121
f 136/164/122 137/165/106 115/140/108
f 117/142/115 119/144/107 83/100/112
f 85/102/123 88/105/124 158/190/125
f 119/144/107 86/103/111 115/140/108
f 141/170/126 91/108/127 117/142/115
f 156/187/128 142/171/129 149/179/130
f 151/182/131 127/155/120 156/187/128
f 128/156/116 130/158/132 92/109/113
f 93/111/133 138/166/134 109/133/135
f 111/135/136 117/142/115 137/165/106
f 92/109/113 130/158/132 150/180/104
f 86/103/111 119/144/107 132/160/109
f 93/111/133 150/180/104 101/122/137
f 152/183/138 142/171/129 123/148/139
f 81/97/140 136/164/122 118/143/141
f 84/101/105 93/112/133 141/170/126
f 93/111/133 101/122/137 138/166/134
f 159/191/114 81/97/140 139/167/142
f 84/101/105 111/135/136 89/106/103
f 141/170/126 111/135/136 84/101/105
f 117/142/115 91/108/127 119/144/107
f 136/164/122 81/97/140 137/165/106
f 96/116/143 99/119/144 113/138/145
f 86/103/111 118/143/141 115/140/108
f 111/135/136 137/165/106 89/106/103
f 122/147/146 134/162/147 157/189/148
f 144/174/149 154/185/150 125/151/151
f 135/163/152 132/160/109 91/108/127
f 155/186/118 110/134/117 114/139/153
f 152/183/138 124/149/154 120/145/155
f 125/151/151 154/185/150 143/172/156
f 141/170/126 117/142/115 111/135/136
f 141/170/126 109/132/135 133/161/157
f 93/112/133 109/132/135 141/170/126
f 113/138/145 109/133/135 96/116/143
f 104/126/158 102/124/159 103/125/160
f 98/118/161 138/166/134 114/139/153
f 105/127/162 95/115/163 107/129/164
f 112/136/165 102/123/159 100/120/166
f 130/158/132 114/139/153 101/122/137
f 143/173/156 103/125/160 125/150/151
f 136/164/122 115/140/108 118/143/141
f 110/134/117 128/156/116 154/185/150
f 125/151/151 106/128/167 144/174/149
f 109/132/135 116/141/168 133/161/157
f 110/134/117 154/185/150 144/174/149
f 88/105/124 81/97/140 158/190/125
f 149/179/130 151/182/131 156/187/128
f 127/154/120 87/104/119 156/188/128
f 144/174/149 97/117/169 99/119/144
f 135/163/152 91/108/127 116/141/168
f 116/141/168 109/132/135 113/137/145
f 113/137/145 108/131/170 116/141/168
f 96/116/143 98/118/161 99/119/144
f 151/182/131 120/145/155 131/159/171
f 143/172/156 90/107/172 140/169/121
f 132/160/109 119/144/107 91/108/127
f 82/98/173 142/171/129 156/187/128
f 145/175/174 147/177/175 122/147/146
f 134/162/147 85/102/123 158/190/125
f 141/170/126 133/161/157 91/108/127
f 103/125/160 102/124/159 125/150/151
f 148/178/176 85/102/123 147/177/175
f 95/115/163 100/121/166 102/124/159
f 121/146/110 134/162/147 86/103/111
f 134/162/147 158/190/125 86/103/111
f 92/109/113 94/114/177 153/184/178
f 159/191/114 94/113/177 92/110/113
f 142/171/129 152/183/138 149/179/130
f 151/182/131 152/183/138 120/145/155
f 138/166/134 98/118/161 109/133/135
f 109/133/135 98/118/161 96/116/143
f 143/172/156 154/185/150 129/157/179
f 147/177/175 145/175/174 148/178/176
f 126/153/180 105/127/162 108/131/170
f 94/114/177 90/107/172 153/184/178
f 124/149/154 104/126/158 120/145/155
f 88/105/124 148/178/176 146/176/181
f 90/107/172 143/172/156 129/157/179
f 94/114/177 87/104/119 90/107/172
f 107/129/164 95/115/163 122/147/146
f 85/102/123 134/162/147 122/147/146
f 148/178/176 123/148/139 146/176/181
f 133/161/157 116/141/168 91/108/127
f 90/107/172 129/157/179 153/184/178
f 92/109/113 153/184/178 128/156/116
f 100/120/166 126/152/180 112/136/165
f 82/98/173 81/97/140 146/176/181
f 150/180/104 130/158/132 101/122/137
f 121/146/110 132/160/109 135/163/152
f 82/99/173 156/188/128 87/104/119
f 92/110/113 150/181/104 89/106/103
f 131/159/171 120/145/155 143/173/156
f 104/126/158 124/149/154 95/115/163
f 151/182/131 149/179/130 152/183/138
f 118/143/141 86/103/111 158/190/125
f 131/159/171 127/155/120 151/182/131
f 148/178/176 145/175/174 123/148/139
f 122/147/146 124/149/154 145/175/174
f 135/163/152 105/127/162 157/189/148
f 103/125/160 120/145/155 104/126/158
f 101/122/137 114/139/153 138/166/134
f 85/102/123 122/147/146 147/177/175
f 134/162/147 121/146/110 157/189/148
f 112/136/165 97/117/169 106/128/167
f 140/169/121 90/107/172 87/104/119
f 152/183/138 123/148/139 124/149/154
f 146/176/181 142/171/129 82/98/173
f 112/136/165 106/128/167 102/123/159
f 105/127/162 126/153/180 95/115/163
f 145/175/174 124/149/154 123/148/139
f 88/105/124 85/102/123 148/178/176
f 158/190/125 81/97/140 118/143/141
f 113/138/145 99/119/144 108/130/170
f 143/172/156 140/169/121 127/154/120
f 89/106/103 137/165/106 81/97/140
f 114/139/153 130/158/132 155/186/118
f 159/191/114 139/167/142 94/113/177
f 128/156/116 155/186/118 130/158/132
f 102/123/159 106/128/167 125/151/151
f 114/139/153 99/119/144 98/118/161
f 146/176/181 81/97/140 88/105/124
f 139/167/142 81/97/140 82/98/173
f 82/99/173 87/104/119 94/114/177
f 123/148/139 142/171/129 146/176/181
f 97/117/169 144/174/149 106/128/167
f 129/157/179 154/185/150 128/156/116
f 150/181/104 93/112/133 84/101/105
f 99/119/144 112/136/165 108/130/170
f 144/174/149 99/119/144 114/139/153
f 144/174/149 114/139/153 110/134/117
f 108/130/170 112/136/165 126/152/180
f 122/147/146 95/115/163 124/149/154
f 81/97/140 159/191/114 89/106/103
f 120/145/155 103/125/160 143/173/156
f 139/168/182 82/99/173 94/114/177
f 97/117/169 112/136/165 99/119/144
f 104/126/158 95/115/163 102/124/159
f 107/129/164 122/147/146 157/189/148
f 121/146/110 135/163/152 157/189/148
f 107/129/164 157/189/148 105/127/162
f 126/153/180 100/121/166 95/115/163
f 108/131/170 135/163/152 116/141/168
f 127/155/120 131/159/171 143/173/156
f 108/131/170 105/127/162 135/163/152
f 129/157/179 128/156/116 153/184/178
f 33/44/81 2/4/90 42/58/44
f 17/20/82 20/24/102 60/76/66
f 34/46/83 1/2/94 41/57/84
f 38/53/86 78/94/56 65/81/58
f 17/20/82 57/73/74 79/95/88
f 2/4/90 34/46/83 74/90/85
f 24/30/91 25/32/87 65/81/58
f 35/48/92 39/55/89 79/95/88
f 29/38/93 69/85/98 41/57/84
f 38/53/86 37/51/96 77/93/77
f 28/36/95 68/84/78 77/93/77
f 29/38/93 23/28/100 63/79/97
f 31/41/99 71/87/101 63/79/97
f 31/41/99 24/30/91 64/80/47
f 33/44/81 73/89/46 60/76/66
f 28/36/95 35/48/92 75/91/59
